<svg width="2038" height="563" viewBox="0 0 2038 563" fill="none" xmlns="http://www.w3.org/2000/svg">
<path d="M118.218 184L152.344 243.109C171.192 275.754 160.007 317.497 127.362 336.344L68.2531 370.471L34.1266 311.362C15.279 278.717 26.464 236.974 59.1089 218.127L118.218 184Z" fill="black"/>
<path d="M118.993 98.2963L163.368 72.6768C196.013 53.8292 237.756 65.0142 256.603 97.6591L394.356 336.254L349.982 361.873C317.337 380.721 275.594 369.536 256.746 336.891L118.993 98.2963Z" fill="black"/>
<path d="M305.552 97.7461L349.926 72.1266C382.571 53.279 424.314 64.464 443.162 97.109L581.123 336.065L536.749 361.684C504.104 380.532 462.361 369.347 443.513 336.702L305.552 97.7461Z" fill="black"/>
<path d="M652.493 93.1901V375H710.286V190.888H712.626L785.555 373.624H824.909L897.839 191.576H900.178V375H957.971V93.1901H884.491L806.883 282.531H803.581L725.973 93.1901H652.493ZM1066.23 378.99C1097.47 378.99 1117.69 365.368 1128.01 345.691H1129.66V375H1185.26V232.444C1185.26 182.081 1142.6 160.891 1095.54 160.891C1044.9 160.891 1011.6 185.109 1003.48 223.637L1057.7 228.041C1061.69 214.005 1074.21 203.685 1095.26 203.685C1115.22 203.685 1126.64 213.73 1126.64 231.068V231.893C1126.64 245.516 1112.19 247.305 1075.45 250.883C1033.62 254.735 996.052 268.771 996.052 315.969C996.052 357.8 1025.91 378.99 1066.23 378.99ZM1083.02 338.535C1064.99 338.535 1052.06 330.142 1052.06 314.042C1052.06 297.53 1065.68 289.411 1086.32 286.522C1099.12 284.733 1120.03 281.706 1127.05 277.027V299.456C1127.05 321.61 1108.75 338.535 1083.02 338.535ZM1230.73 375H1289.35V307.85L1305.18 289.824L1362.83 375H1431.5L1349.07 255.148L1427.5 163.643H1360.22L1292.52 243.865H1289.35V93.1901H1230.73V375ZM1543.88 379.128C1596.17 379.128 1631.4 353.672 1639.65 314.455L1585.44 310.877C1579.52 326.977 1564.39 335.37 1544.85 335.37C1515.54 335.37 1496.96 315.969 1496.96 284.458V284.32H1640.89V268.22C1640.89 196.392 1597.41 160.891 1541.54 160.891C1479.35 160.891 1439.03 205.061 1439.03 270.284C1439.03 337.297 1478.8 379.128 1543.88 379.128ZM1496.96 247.993C1498.2 223.912 1516.5 204.648 1542.51 204.648C1567.96 204.648 1585.58 222.812 1585.71 247.993H1496.96ZM1679.15 375H1737.76V255.423C1737.76 229.417 1756.75 211.528 1782.62 211.528C1790.74 211.528 1801.89 212.904 1807.39 214.693V162.679C1802.16 161.441 1794.87 160.615 1788.95 160.615C1765.28 160.615 1745.88 174.376 1738.18 200.52H1735.98V163.643H1679.15V375ZM2013.55 223.912C2008.33 184.971 1976.95 160.891 1923.56 160.891C1869.48 160.891 1833.85 185.934 1833.98 226.665C1833.85 258.313 1853.8 278.816 1895.08 287.072L1931.68 294.365C1950.12 298.08 1958.51 304.823 1958.79 315.418C1958.51 327.94 1944.89 336.884 1924.39 336.884C1903.47 336.884 1889.57 327.94 1886 310.74L1828.34 313.767C1833.85 354.222 1868.25 379.128 1924.25 379.128C1979.02 379.128 2018.23 351.195 2018.37 309.501C2018.23 278.953 1998.28 260.652 1957.27 252.259L1919.02 244.553C1899.34 240.287 1892.05 233.545 1892.19 223.362C1892.05 210.703 1906.36 202.446 1924.53 202.446C1944.89 202.446 1957 213.592 1959.89 227.215L2013.55 223.912Z" fill="black"/>
<path d="M554.585 463.727V551H572.483V493.983H573.207L595.793 550.574H607.98L630.565 494.196H631.29V551H649.188V463.727H626.432L602.398 522.364H601.375L577.341 463.727H554.585ZM783.19 551H842.167V535.787H801.642V514.949H838.971V499.736H801.642V478.94H841.997V463.727H783.19V551ZM975.466 551H993.918V520.062H1007.38L1023.92 551H1044.29L1025.75 517.08C1035.68 512.818 1041.18 504.168 1041.18 492.236C1041.18 474.892 1029.71 463.727 1009.9 463.727H975.466V551ZM993.918 505.233V478.812H1006.36C1017.01 478.812 1022.17 483.543 1022.17 492.236C1022.17 500.886 1017.01 505.233 1006.45 505.233H993.918ZM1250.02 494.281C1247.59 474.125 1232.33 462.534 1212.14 462.534C1189.08 462.534 1171.48 478.812 1171.48 507.364C1171.48 535.83 1188.78 552.193 1212.14 552.193C1234.51 552.193 1248.02 537.321 1250.02 521.256L1231.35 521.17C1229.61 530.503 1222.28 535.872 1212.43 535.872C1199.18 535.872 1190.19 526.028 1190.19 507.364C1190.19 489.21 1199.05 478.855 1212.56 478.855C1222.66 478.855 1229.95 484.693 1231.35 494.281H1250.02ZM1382.05 551H1400.5V514.949H1437.96V551H1456.37V463.727H1437.96V499.736H1400.5V463.727H1382.05V551Z" fill="black"/>
</svg>
