<svg width="845" height="845" viewBox="0 0 845 845" fill="none" xmlns="http://www.w3.org/2000/svg">
<rect width="845" height="845" rx="422.5" fill="black"/>
<path d="M250.218 390L284.344 449.109C303.192 481.754 292.007 523.497 259.362 542.344L200.253 576.471L166.127 517.362C147.279 484.717 158.464 442.974 191.109 424.127L250.218 390Z" fill="white"/>
<path d="M250.993 304.296L295.368 278.677C328.013 259.829 369.756 271.014 388.603 303.659L526.356 542.254L481.982 567.873C449.337 586.721 407.594 575.536 388.746 542.891L250.993 304.296Z" fill="white"/>
<path d="M437.552 303.746L481.926 278.127C514.571 259.279 556.314 270.464 575.162 303.109L713.123 542.065L668.749 567.684C636.104 586.532 594.361 575.347 575.513 542.702L437.552 303.746Z" fill="white"/>
</svg>
